<svg width="50" height="50" viewBox="0 0 50 50" fill="none" xmlns="http://www.w3.org/2000/svg">
<g id="grass_black_24dp (2) 1" clip-path="url(#clip0_4097_19652)">
<path id="Vector" d="M25 41.6666H4.16669V37.4999H16.1459C14.625 31.6458 10.0209 27.0624 4.16669 25.5416C5.50002 25.2083 6.89585 24.9999 8.33335 24.9999C17.5417 24.9999 25 32.4583 25 41.6666ZM45.8334 25.5416C44.5 25.2083 43.1042 24.9999 41.6667 24.9999C35.5625 24.9999 30.25 28.2916 27.3334 33.1874C27.9375 34.5624 28.4375 35.9999 28.7292 37.4999C29 38.8541 29.1459 40.2499 29.1459 41.6666H33.3125H45.8125V37.4999H33.8334C35.375 31.6458 39.9792 27.0624 45.8334 25.5416ZM32.5834 22.9583C34.2084 18.6041 37.2292 14.9583 41.1042 12.5416C32.1667 12.8333 25 20.1458 25 29.1666C25 29.1874 25 29.2083 25 29.2083C26.9792 26.5624 29.5834 24.4166 32.5834 22.9583ZM23.7917 18.4374C22.0417 13.8749 18.5 10.1874 13.9584 8.33325C16.9584 12.2083 18.75 17.0416 18.75 22.3124C18.75 22.7499 18.6875 23.1666 18.6667 23.5833C19.5625 24.0833 20.3959 24.6666 21.2084 25.2916C21.6459 22.8333 22.5625 20.5208 23.7917 18.4374Z" fill="#00AB55"/>
</g>
<defs>
<clipPath id="clip0_4097_19652">
<rect width="50" height="50" fill="white"/>
</clipPath>
</defs>
</svg>
