<svg width="50" height="50" viewBox="0 0 50 50" fill="none" xmlns="http://www.w3.org/2000/svg">
<g id="group_work_black_24dp 1" clip-path="url(#clip0_4124_19904)">
<path id="Vector" d="M25 4.16675C13.5 4.16675 4.16669 13.5001 4.16669 25.0001C4.16669 36.5001 13.5 45.8334 25 45.8334C36.5 45.8334 45.8334 36.5001 45.8334 25.0001C45.8334 13.5001 36.5 4.16675 25 4.16675ZM25 41.6668C15.8125 41.6668 8.33335 34.1876 8.33335 25.0001C8.33335 15.8126 15.8125 8.33342 25 8.33342C34.1875 8.33342 41.6667 15.8126 41.6667 25.0001C41.6667 34.1876 34.1875 41.6668 25 41.6668Z" fill="#00AB55"/>
<path id="Vector_2" d="M16.6667 33.3333C18.9679 33.3333 20.8333 31.4679 20.8333 29.1667C20.8333 26.8655 18.9679 25 16.6667 25C14.3655 25 12.5 26.8655 12.5 29.1667C12.5 31.4679 14.3655 33.3333 16.6667 33.3333Z" fill="#00AB55"/>
<path id="Vector_3" d="M25 20.8333C27.3012 20.8333 29.1666 18.9679 29.1666 16.6667C29.1666 14.3655 27.3012 12.5 25 12.5C22.6988 12.5 20.8333 14.3655 20.8333 16.6667C20.8333 18.9679 22.6988 20.8333 25 20.8333Z" fill="#00AB55"/>
<path id="Vector_4" d="M33.3334 33.3333C35.6345 33.3333 37.5 31.4679 37.5 29.1667C37.5 26.8655 35.6345 25 33.3334 25C31.0322 25 29.1667 26.8655 29.1667 29.1667C29.1667 31.4679 31.0322 33.3333 33.3334 33.3333Z" fill="#00AB55"/>
</g>
<defs>
<clipPath id="clip0_4124_19904">
<rect width="50" height="50" fill="white"/>
</clipPath>
</defs>
</svg>
