<svg width="50" height="50" viewBox="0 0 50 50" fill="none" xmlns="http://www.w3.org/2000/svg">
<g clip-path="url(#clip0_4097_19663)">
<path d="M9.37502 24.9999C12.2515 24.9999 14.5834 22.6681 14.5834 19.7916C14.5834 16.9151 12.2515 14.5833 9.37502 14.5833C6.49854 14.5833 4.16669 16.9151 4.16669 19.7916C4.16669 22.6681 6.49854 24.9999 9.37502 24.9999Z" fill="#00AB55"/>
<path d="M18.75 16.6667C21.6265 16.6667 23.9584 14.3348 23.9584 11.4583C23.9584 8.58185 21.6265 6.25 18.75 6.25C15.8735 6.25 13.5417 8.58185 13.5417 11.4583C13.5417 14.3348 15.8735 16.6667 18.75 16.6667Z" fill="#00AB55"/>
<path d="M31.25 16.6667C34.1265 16.6667 36.4584 14.3348 36.4584 11.4583C36.4584 8.58185 34.1265 6.25 31.25 6.25C28.3735 6.25 26.0417 8.58185 26.0417 11.4583C26.0417 14.3348 28.3735 16.6667 31.25 16.6667Z" fill="#00AB55"/>
<path d="M40.625 24.9999C43.5015 24.9999 45.8334 22.6681 45.8334 19.7916C45.8334 16.9151 43.5015 14.5833 40.625 14.5833C37.7485 14.5833 35.4167 16.9151 35.4167 19.7916C35.4167 22.6681 37.7485 24.9999 40.625 24.9999Z" fill="#00AB55"/>
<path d="M36.125 30.9583C34.3125 28.8333 32.7917 27.0208 30.9583 24.8958C30 23.7708 28.7708 22.6458 27.3125 22.1458C27.0833 22.0625 26.8542 22 26.625 21.9583C26.1042 21.875 25.5417 21.875 25 21.875C24.4583 21.875 23.8958 21.875 23.3542 21.9792C23.125 22.0208 22.8958 22.0833 22.6667 22.1667C21.2083 22.6667 20 23.7917 19.0208 24.9167C17.2083 27.0417 15.6875 28.8542 13.8542 30.9792C11.125 33.7083 7.77085 36.7292 8.39585 40.9583C9.00001 43.0833 10.5208 45.1875 13.25 45.7917C14.7708 46.1042 19.625 44.875 24.7917 44.875H25.1667C30.3333 44.875 35.1875 46.0833 36.7084 45.7917C39.4375 45.1875 40.9584 43.0625 41.5625 40.9583C42.2084 36.7083 38.8542 33.6875 36.125 30.9583Z" fill="#00AB55"/>
</g>
<defs>
<clipPath id="clip0_4097_19663">
<rect width="50" height="50" fill="white"/>
</clipPath>
</defs>
</svg>
