
<svg width="254" height="36" viewBox="0 0 254 36" fill="none" xmlns="http://www.w3.org/2000/svg"><path d="M160.011 23.837v-6.606h-6.291v-2.866h9.326v9.472h-3.035Zm-8.185 6.098c-8.786.006-14.217-6.46-14.217-14.521v-.08c0-7.75 5.63-14.609 14.018-14.609 4.712 0 7.627 1.372 10.424 3.753l-2.04 2.42c-2.157-1.896-4.553-3.24-8.505-3.24-6.188 0-10.608 5.302-10.608 11.585v.082c0 6.738 4.272 11.74 11.061 11.74h5.05v2.827l-5.183.043ZM170.43 8.594h3.077v5.448c1.518-3.47 4.502-5.972 8.424-5.81v3.353h-.241c-4.526 0-8.186 3.268-8.186 9.564v8.308h-3.077l.003-20.863Zm31.218 9.284c-.317-3.795-2.474-7.103-6.587-7.103-3.596 0-6.311 3.027-6.709 7.103h13.296Zm-16.398 1.207v-.079c0-6.012 4.194-10.853 9.902-10.853 6.11 0 9.625 4.92 9.625 11.015.007.337-.006.674-.04 1.009h-16.385c.44 4.518 3.593 7.06 7.268 7.06 2.836 0 4.827-1.17 6.508-2.944l1.918 1.734c-2.075 2.342-4.592 3.915-8.505 3.915-5.672 0-10.291-4.4-10.291-10.857Zm40.836-1.207c-.32-3.795-2.474-7.103-6.589-7.103-3.594 0-6.309 3.027-6.71 7.103h13.299Zm-16.413 1.22v-.08c0-6.012 4.194-10.853 9.902-10.853 6.112 0 9.625 4.92 9.625 11.015.007.337-.006.674-.04 1.01h-16.373c.44 4.517 3.596 7.06 7.271 7.06 2.833 0 4.827-1.17 6.508-2.945l1.915 1.735c-2.075 2.341-4.592 3.914-8.505 3.914-5.672-.012-10.288-4.411-10.288-10.869m25.7-10.49h3.074v3.634c1.358-2.262 3.515-4.076 7.069-4.076 4.991 0 7.905 3.387 7.905 8.353v12.951h-3.074V17.262c0-3.875-2.076-6.295-5.712-6.295-3.551 0-6.188 2.625-6.188 6.536v11.954h-3.074V8.595ZM35.098.61h-3.515v3.426h3.515V.61Zm-.242 7.99h-3.074v20.856h3.074V8.6Zm16.453-.451c-4.915 0-9.706 3.753-9.706 9.847v.083c0 6.012 4.751 9.755 9.706 9.755 3.792 0 6.308-1.978 8.106-4.399v2.479c0 4.878-2.956 7.423-7.51 7.423a13.068 13.068 0 0 1-7.943-2.664l-1.4 2.42A16.05 16.05 0 0 0 51.945 36c3.277 0 6.034-.915 7.869-2.784 1.677-1.695 2.633-4.155 2.633-7.384V8.594h-3.07v3.753c-1.681-2.26-4.195-4.198-8.069-4.198Zm.603 16.95c-3.835 0-7.148-2.905-7.148-7.103v-.079c0-4.268 3.235-7.012 7.148-7.012s7.588 2.783 7.588 7.06v.083c0 4.195-3.675 7.06-7.588 7.06M73.707.61h-3.515v3.426h3.515V.61Zm-.241 7.99H70.39v20.856h3.075V8.6Zm12.099-6.298H82.49v6.292h-2.875v2.744h2.875V23.93c0 4.238 2.517 5.893 5.832 5.893a7.67 7.67 0 0 0 3.7-.89v-2.661a6.402 6.402 0 0 1-2.994.725c-2.078 0-3.475-.914-3.475-3.47V11.333h6.55V8.588h-6.538V2.302Zm20.564 6.012a16.883 16.883 0 0 0-7.506 1.747l.905 2.543c1.916-.887 3.835-1.525 6.27-1.525 3.874 0 6.149 1.936 6.149 5.69v.725a21.735 21.735 0 0 0-6.349-.909c-5.228 0-8.825 2.342-8.825 6.738v.082c0 4.268 3.878 6.497 7.709 6.497 3.636 0 6.034-1.695 7.468-3.591v3.146h2.956v-12.75c0-2.664-.721-4.68-2.112-6.097-1.508-1.525-3.753-2.299-6.668-2.299l.003.003Zm-1.037 19.125c-2.797 0-5.193-1.525-5.193-4.159v-.08c0-2.624 2.157-4.316 6.034-4.316 2.055 0 4.098.3 6.068.887v2.015c0 3.311-3.114 5.653-6.906 5.653M125.613 0h-3.074v29.457h3.074V0ZM9.703 1.22H6.034v2.948h3.669c7.07 0 11.58 4.92 11.58 11.177v.08c0 6.255-4.526 11.096-11.58 11.096h-6.55V7.318H0v22.14h9.703c8.786 0 14.856-6.174 14.856-14.122v-.092c0-7.926-6.07-14.024-14.856-14.024Z" fill="#1CA069"/></svg>